<svg xmlns="http://www.w3.org/2000/svg" style="border: 0 !important; clip: rect(0 0 0 0) !important; height: 1px !important; margin: -1px !important; overflow: hidden !important; padding: 0 !important; position: absolute !important; width: 1px !important;" class="root-svg-symbols-element">
    <symbol id="icon-xlsx" viewBox="0 0 103 116">
      <path d="M11.38 114.91c-.62-.746-1.213-6.665-1.374-13.71l-.282-12.397-3.343-.682c-1.83-.37-3.86-1.2-4.5-1.83-.77-.77-1.25-7.52-1.45-20.36C.09 44.56.34 43.57 6.28 42.35l3.45-.705L10 22.26c.173-12.23.68-19.87 1.374-20.71C12.237.507 18.57.22 41.25.22h28.784l11.344 13.04 11.346 13.036.5 7.677.5 7.677 3.45.702c5.765 1.172 6.05 2.248 6.05 22.872s-.284 21.698-6.05 22.875l-3.45.7-.282 12.39c-.16 7.04-.753 12.96-1.373 13.71-.87 1.04-9.15 1.31-40.35 1.31-31.2 0-39.48-.27-40.35-1.32zm77.844-15.186v-11.5h-75v23h75v-11.5zM67.958 76.59c1.23-.766 2.53-2.574 2.894-4.02 1.094-4.36-.728-7.41-6.128-10.257-6.518-3.437-6.642-5.61-.317-5.53 3.9.048 4.773-.283 5.218-1.983.69-2.638-.272-3.52-4.606-4.222-4.67-.758-10.36 1.932-11.58 5.477-1.49 4.324.3 7.657 5.57 10.367 3.15 1.625 4.7 3.06 4.7 4.36 0 1.698-.65 1.916-5.15 1.734-4.53-.184-5.22.053-5.71 1.956-.7 2.656-.56 2.802 3.55 3.726 3.99.9 8.52.268 11.53-1.61zm-51.95-3.076l2.038-4.71 2.288 4.71c2.123 4.37 2.56 4.71 6.04 4.71h3.75l-4.018-6.967-4.017-6.967 3.56-6.086c1.96-3.348 3.56-6.288 3.56-6.534 0-.245-1.6-.446-3.54-.446-3.22 0-3.71.39-5.35 4.25l-1.81 4.25-2.17-4.25c-1.93-3.77-2.57-4.25-5.66-4.25-1.91 0-3.48.262-3.48.582 0 .32 1.59 3.29 3.53 6.6l3.53 6.02-3.98 6.9-3.98 6.898h3.822c3.6 0 3.94-.274 5.86-4.71zm34.216 2.21c0-2.364-.3-2.5-5.5-2.5h-5.5v-22h-6v27h8.5c8.4 0 8.5-.03 8.5-2.5zM82.49 73.69l2.303-4.532 2.203 4.533c1.99 4.1 2.538 4.54 5.715 4.54 1.94 0 3.52-.2 3.52-.44s-1.57-3.13-3.5-6.42c-3.59-6.13-4.12-8.03-2.66-9.68.46-.52 2.06-3.09 3.55-5.7l2.71-4.75h-3.89c-3.64 0-4 .28-5.62 4.25L85.1 59.74l-2.12-4.25c-1.95-3.9-2.44-4.25-6.01-4.25h-3.89l1.945 3.25c1.068 1.79 2.79 4.74 3.825 6.55l1.88 3.3-3.8 6.95-3.8 6.96h3.54c3.19 0 3.768-.442 5.84-4.532zm6.734-37.432v-5.966l-10.75-.284-10.75-.284-.28-12.75-.28-12.75h-52.94v38h75v-5.966z"/>
    </symbol></svg>